<?xml version="1.0" standalone="no"?><!DOCTYPE svg PUBLIC "-//W3C//DTD SVG 1.1//EN" "http://www.w3.org/Graphics/SVG/1.1/DTD/svg11.dtd"><svg t="1652370744975" class="icon" viewBox="0 0 1024 1024" version="1.1" xmlns="http://www.w3.org/2000/svg" p-id="52878" xmlns:xlink="http://www.w3.org/1999/xlink" width="16" height="16"><defs><style type="text/css"></style></defs><path d="M298.666667 298.666667V128a42.666667 42.666667 0 0 1 42.666666-42.666667h554.666667a42.666667 42.666667 0 0 1 42.666667 42.666667v554.666667a42.666667 42.666667 0 0 1-42.666667 42.666666h-170.666667v170.368c0 23.722667-19.157333 42.965333-42.965333 42.965334H128.298667A42.922667 42.922667 0 0 1 85.333333 895.701333l0.128-554.069333C85.461333 317.909333 104.618667 298.666667 128.426667 298.666667H298.666667z m85.333333 0h298.368C706.090667 298.666667 725.333333 317.824 725.333333 341.632V640h128V170.666667H384v128z m-21.205333 469.333333l241.322666-241.365333-60.330666-60.330667-180.992 181.034667L272.213333 556.8l-60.330666 60.330667L362.794667 768z" p-id="52879" fill="#55555a"></path></svg>