<?xml version="1.0" standalone="no"?><!DOCTYPE svg PUBLIC "-//W3C//DTD SVG 1.1//EN" "http://www.w3.org/Graphics/SVG/1.1/DTD/svg11.dtd"><svg t="1652756460031" class="icon" viewBox="0 0 1024 1024" version="1.1" xmlns="http://www.w3.org/2000/svg" p-id="33983" xmlns:xlink="http://www.w3.org/1999/xlink" width="16" height="16"><defs><style type="text/css"></style></defs><path d="M512 960C264.576 960 64 759.424 64 512S264.576 64 512 64s448 200.576 448 448-200.576 448-448 448z m0-85.333333c200.298667 0 362.666667-162.368 362.666667-362.666667S712.298667 149.333333 512 149.333333 149.333333 311.701333 149.333333 512s162.368 362.666667 362.666667 362.666667z m215.466667-573.866667l-114.837334 263.424a85.333333 85.333333 0 0 1-44.117333 44.117333l-263.402667 114.837334 114.837334-263.402667a85.333333 85.333333 0 0 1 44.117333-44.117333l263.424-114.837334zM471.04 557.269333a64 64 0 1 0 90.496-90.496 64 64 0 0 0-90.496 90.496z" p-id="33984" fill="#0081c2"></path></svg>